<mxfile host="app.diagrams.net" modified="2022-05-27T09:57:06.585Z" agent="5.0 (Macintosh; Intel Mac OS X 10_15_7) AppleWebKit/537.36 (KHTML, like Gecko) Chrome/101.0.4951.64 Safari/537.36" etag="bDgbl01IPGyG9i2RM37r" version="18.0.7" type="github" pages="3">
  <diagram id="3SyprcpHxa9v9pUFkzcj" name="status">
    <mxGraphModel dx="952" dy="740" grid="1" gridSize="10" guides="1" tooltips="1" connect="1" arrows="1" fold="1" page="1" pageScale="1" pageWidth="1100" pageHeight="850" math="0" shadow="0">
      <root>
        <mxCell id="0" />
        <mxCell id="1" parent="0" />
        <mxCell id="i3gZExjQcRAgi3sSbV-m-11" value="Accepted" style="edgeStyle=orthogonalEdgeStyle;rounded=0;orthogonalLoop=1;jettySize=auto;html=1;" parent="1" source="i3gZExjQcRAgi3sSbV-m-1" target="i3gZExjQcRAgi3sSbV-m-5" edge="1">
          <mxGeometry relative="1" as="geometry" />
        </mxCell>
        <mxCell id="i3gZExjQcRAgi3sSbV-m-14" style="edgeStyle=orthogonalEdgeStyle;rounded=0;orthogonalLoop=1;jettySize=auto;html=1;entryX=0;entryY=0.5;entryDx=0;entryDy=0;" parent="1" source="i3gZExjQcRAgi3sSbV-m-1" target="i3gZExjQcRAgi3sSbV-m-8" edge="1">
          <mxGeometry relative="1" as="geometry">
            <Array as="points">
              <mxPoint x="120" y="300" />
              <mxPoint x="120" y="715" />
            </Array>
          </mxGeometry>
        </mxCell>
        <mxCell id="i3gZExjQcRAgi3sSbV-m-16" value="Timer Out or Decline" style="edgeStyle=orthogonalEdgeStyle;rounded=0;orthogonalLoop=1;jettySize=auto;html=1;entryX=1;entryY=0.5;entryDx=0;entryDy=0;" parent="1" source="i3gZExjQcRAgi3sSbV-m-1" target="i3gZExjQcRAgi3sSbV-m-7" edge="1">
          <mxGeometry relative="1" as="geometry">
            <Array as="points">
              <mxPoint x="480" y="300" />
              <mxPoint x="480" y="180" />
            </Array>
          </mxGeometry>
        </mxCell>
        <mxCell id="i3gZExjQcRAgi3sSbV-m-1" value="Waiting Accept" style="rounded=1;whiteSpace=wrap;html=1;" parent="1" vertex="1">
          <mxGeometry x="220" y="270" width="120" height="60" as="geometry" />
        </mxCell>
        <mxCell id="i3gZExjQcRAgi3sSbV-m-2" value="" style="ellipse;html=1;shape=startState;fillColor=#000000;strokeColor=#ff0000;" parent="1" vertex="1">
          <mxGeometry x="265" y="50" width="30" height="30" as="geometry" />
        </mxCell>
        <mxCell id="i3gZExjQcRAgi3sSbV-m-3" value="" style="edgeStyle=orthogonalEdgeStyle;html=1;verticalAlign=bottom;endArrow=open;endSize=8;strokeColor=#ff0000;entryX=0.5;entryY=0;entryDx=0;entryDy=0;" parent="1" source="i3gZExjQcRAgi3sSbV-m-2" target="i3gZExjQcRAgi3sSbV-m-7" edge="1">
          <mxGeometry relative="1" as="geometry">
            <mxPoint x="280" y="130" as="targetPoint" />
          </mxGeometry>
        </mxCell>
        <mxCell id="i3gZExjQcRAgi3sSbV-m-12" style="edgeStyle=orthogonalEdgeStyle;rounded=0;orthogonalLoop=1;jettySize=auto;html=1;entryX=0.5;entryY=0;entryDx=0;entryDy=0;" parent="1" source="i3gZExjQcRAgi3sSbV-m-5" target="i3gZExjQcRAgi3sSbV-m-6" edge="1">
          <mxGeometry relative="1" as="geometry" />
        </mxCell>
        <mxCell id="i3gZExjQcRAgi3sSbV-m-17" value="Pick up" style="edgeLabel;html=1;align=center;verticalAlign=middle;resizable=0;points=[];" parent="i3gZExjQcRAgi3sSbV-m-12" vertex="1" connectable="0">
          <mxGeometry x="-0.075" y="-2" relative="1" as="geometry">
            <mxPoint as="offset" />
          </mxGeometry>
        </mxCell>
        <mxCell id="i3gZExjQcRAgi3sSbV-m-15" style="edgeStyle=orthogonalEdgeStyle;rounded=0;orthogonalLoop=1;jettySize=auto;html=1;entryX=0;entryY=0.5;entryDx=0;entryDy=0;" parent="1" source="i3gZExjQcRAgi3sSbV-m-5" target="i3gZExjQcRAgi3sSbV-m-8" edge="1">
          <mxGeometry relative="1" as="geometry">
            <Array as="points">
              <mxPoint x="120" y="430" />
              <mxPoint x="120" y="715" />
            </Array>
          </mxGeometry>
        </mxCell>
        <mxCell id="i3gZExjQcRAgi3sSbV-m-5" value="Go to Store" style="rounded=1;whiteSpace=wrap;html=1;" parent="1" vertex="1">
          <mxGeometry x="220" y="400" width="120" height="60" as="geometry" />
        </mxCell>
        <mxCell id="i3gZExjQcRAgi3sSbV-m-13" style="edgeStyle=orthogonalEdgeStyle;rounded=0;orthogonalLoop=1;jettySize=auto;html=1;entryX=0.5;entryY=0;entryDx=0;entryDy=0;" parent="1" source="i3gZExjQcRAgi3sSbV-m-6" target="i3gZExjQcRAgi3sSbV-m-8" edge="1">
          <mxGeometry relative="1" as="geometry" />
        </mxCell>
        <mxCell id="i3gZExjQcRAgi3sSbV-m-19" style="edgeStyle=orthogonalEdgeStyle;rounded=0;orthogonalLoop=1;jettySize=auto;html=1;entryX=1;entryY=0.5;entryDx=0;entryDy=0;" parent="1" source="i3gZExjQcRAgi3sSbV-m-6" target="i3gZExjQcRAgi3sSbV-m-7" edge="1">
          <mxGeometry relative="1" as="geometry">
            <Array as="points">
              <mxPoint x="480" y="570" />
              <mxPoint x="480" y="180" />
            </Array>
          </mxGeometry>
        </mxCell>
        <mxCell id="i3gZExjQcRAgi3sSbV-m-20" value="Delivery completed" style="edgeLabel;html=1;align=center;verticalAlign=middle;resizable=0;points=[];" parent="i3gZExjQcRAgi3sSbV-m-19" vertex="1" connectable="0">
          <mxGeometry x="-0.1104" relative="1" as="geometry">
            <mxPoint as="offset" />
          </mxGeometry>
        </mxCell>
        <mxCell id="i3gZExjQcRAgi3sSbV-m-6" value="Deliver to Customer" style="rounded=1;whiteSpace=wrap;html=1;" parent="1" vertex="1">
          <mxGeometry x="220" y="540" width="120" height="60" as="geometry" />
        </mxCell>
        <mxCell id="i3gZExjQcRAgi3sSbV-m-9" style="edgeStyle=orthogonalEdgeStyle;rounded=0;orthogonalLoop=1;jettySize=auto;html=1;entryX=0;entryY=0.5;entryDx=0;entryDy=0;" parent="1" source="i3gZExjQcRAgi3sSbV-m-7" target="i3gZExjQcRAgi3sSbV-m-8" edge="1">
          <mxGeometry relative="1" as="geometry">
            <mxPoint x="50" y="711" as="targetPoint" />
            <Array as="points">
              <mxPoint x="120" y="180" />
              <mxPoint x="120" y="715" />
            </Array>
          </mxGeometry>
        </mxCell>
        <mxCell id="i3gZExjQcRAgi3sSbV-m-10" value="Receive Task" style="edgeStyle=orthogonalEdgeStyle;rounded=0;orthogonalLoop=1;jettySize=auto;html=1;entryX=0.5;entryY=0;entryDx=0;entryDy=0;" parent="1" source="i3gZExjQcRAgi3sSbV-m-7" target="i3gZExjQcRAgi3sSbV-m-1" edge="1">
          <mxGeometry relative="1" as="geometry" />
        </mxCell>
        <mxCell id="i3gZExjQcRAgi3sSbV-m-7" value="Initialize" style="rounded=1;whiteSpace=wrap;html=1;" parent="1" vertex="1">
          <mxGeometry x="220" y="150" width="120" height="60" as="geometry" />
        </mxCell>
        <mxCell id="i3gZExjQcRAgi3sSbV-m-8" value="" style="ellipse;html=1;shape=endState;fillColor=#000000;strokeColor=#ff0000;" parent="1" vertex="1">
          <mxGeometry x="265" y="700" width="30" height="30" as="geometry" />
        </mxCell>
        <mxCell id="i3gZExjQcRAgi3sSbV-m-21" value="Launch App" style="text;html=1;strokeColor=none;fillColor=none;align=center;verticalAlign=middle;whiteSpace=wrap;rounded=0;" parent="1" vertex="1">
          <mxGeometry x="230" y="30" width="100" height="20" as="geometry" />
        </mxCell>
        <mxCell id="i3gZExjQcRAgi3sSbV-m-23" value="Terminate App" style="text;html=1;strokeColor=none;fillColor=none;align=center;verticalAlign=middle;whiteSpace=wrap;rounded=0;" parent="1" vertex="1">
          <mxGeometry x="240" y="730" width="110" height="20" as="geometry" />
        </mxCell>
      </root>
    </mxGraphModel>
  </diagram>
  <diagram id="gtou46zGX1QCLSLipSyE" name="Layer">
    <mxGraphModel dx="952" dy="740" grid="1" gridSize="10" guides="1" tooltips="1" connect="1" arrows="1" fold="1" page="1" pageScale="1" pageWidth="1100" pageHeight="850" math="0" shadow="0">
      <root>
        <mxCell id="DPVgUZX1APURNlut0-wl-0" />
        <mxCell id="DPVgUZX1APURNlut0-wl-1" parent="DPVgUZX1APURNlut0-wl-0" />
        <mxCell id="DPVgUZX1APURNlut0-wl-3" value="" style="rounded=0;whiteSpace=wrap;html=1;fillColor=#dae8fc;strokeColor=#6c8ebf;" parent="DPVgUZX1APURNlut0-wl-1" vertex="1">
          <mxGeometry x="240" y="140" width="400" height="535" as="geometry" />
        </mxCell>
        <mxCell id="DPVgUZX1APURNlut0-wl-4" value="" style="rounded=0;whiteSpace=wrap;html=1;fillColor=#ffe6cc;strokeColor=#d79b00;" parent="DPVgUZX1APURNlut0-wl-1" vertex="1">
          <mxGeometry x="310" y="158" width="400" height="535" as="geometry" />
        </mxCell>
        <mxCell id="DPVgUZX1APURNlut0-wl-5" value="" style="rounded=0;whiteSpace=wrap;html=1;fillColor=#d5e8d4;strokeColor=#82b366;" parent="DPVgUZX1APURNlut0-wl-1" vertex="1">
          <mxGeometry x="380" y="180" width="400" height="535" as="geometry" />
        </mxCell>
        <mxCell id="DPVgUZX1APURNlut0-wl-8" style="edgeStyle=orthogonalEdgeStyle;rounded=0;orthogonalLoop=1;jettySize=auto;html=1;entryX=0;entryY=0.234;entryDx=0;entryDy=0;entryPerimeter=0;fontSize=14;" parent="DPVgUZX1APURNlut0-wl-1" source="DPVgUZX1APURNlut0-wl-7" target="DPVgUZX1APURNlut0-wl-3" edge="1">
          <mxGeometry relative="1" as="geometry" />
        </mxCell>
        <mxCell id="DPVgUZX1APURNlut0-wl-7" value="Map View" style="text;html=1;fillColor=none;align=center;verticalAlign=middle;whiteSpace=wrap;rounded=0;fontStyle=1;fontSize=14;strokeColor=#000000;" parent="DPVgUZX1APURNlut0-wl-1" vertex="1">
          <mxGeometry x="20" y="240" width="120" height="50" as="geometry" />
        </mxCell>
        <mxCell id="DPVgUZX1APURNlut0-wl-10" style="edgeStyle=orthogonalEdgeStyle;rounded=0;orthogonalLoop=1;jettySize=auto;html=1;entryX=0.003;entryY=0.443;entryDx=0;entryDy=0;entryPerimeter=0;fontSize=14;" parent="DPVgUZX1APURNlut0-wl-1" source="DPVgUZX1APURNlut0-wl-9" target="DPVgUZX1APURNlut0-wl-4" edge="1">
          <mxGeometry relative="1" as="geometry" />
        </mxCell>
        <mxCell id="DPVgUZX1APURNlut0-wl-9" value="Data View" style="text;html=1;fillColor=none;align=center;verticalAlign=middle;whiteSpace=wrap;rounded=0;fontStyle=1;fontSize=14;strokeColor=#000000;" parent="DPVgUZX1APURNlut0-wl-1" vertex="1">
          <mxGeometry x="20" y="370" width="120" height="50" as="geometry" />
        </mxCell>
        <mxCell id="DPVgUZX1APURNlut0-wl-12" style="edgeStyle=orthogonalEdgeStyle;rounded=0;orthogonalLoop=1;jettySize=auto;html=1;entryX=-0.002;entryY=0.645;entryDx=0;entryDy=0;entryPerimeter=0;fontSize=14;" parent="DPVgUZX1APURNlut0-wl-1" source="DPVgUZX1APURNlut0-wl-11" target="DPVgUZX1APURNlut0-wl-5" edge="1">
          <mxGeometry relative="1" as="geometry" />
        </mxCell>
        <mxCell id="DPVgUZX1APURNlut0-wl-11" value="Alert/Popup View" style="text;html=1;fillColor=none;align=center;verticalAlign=middle;whiteSpace=wrap;rounded=0;fontStyle=1;fontSize=14;strokeColor=#000000;" parent="DPVgUZX1APURNlut0-wl-1" vertex="1">
          <mxGeometry x="20" y="500" width="120" height="50" as="geometry" />
        </mxCell>
      </root>
    </mxGraphModel>
  </diagram>
  <diagram id="u4hNYogOvnCquQkuKedv" name="event">
    <mxGraphModel dx="952" dy="740" grid="1" gridSize="10" guides="1" tooltips="1" connect="1" arrows="1" fold="1" page="1" pageScale="1" pageWidth="1100" pageHeight="850" math="0" shadow="0">
      <root>
        <mxCell id="sNLeW46Lzk7iC-Mk6fb0-0" />
        <mxCell id="sNLeW46Lzk7iC-Mk6fb0-1" parent="sNLeW46Lzk7iC-Mk6fb0-0" />
        <mxCell id="Lvlu1L-vkbJUihA7xlHj-0" value="Event/Notify" style="ellipse;whiteSpace=wrap;html=1;" parent="sNLeW46Lzk7iC-Mk6fb0-1" vertex="1">
          <mxGeometry x="380" y="270" width="120" height="80" as="geometry" />
        </mxCell>
        <mxCell id="Lvlu1L-vkbJUihA7xlHj-10" style="edgeStyle=orthogonalEdgeStyle;rounded=0;orthogonalLoop=1;jettySize=auto;html=1;startArrow=classic;startFill=1;" parent="sNLeW46Lzk7iC-Mk6fb0-1" source="Lvlu1L-vkbJUihA7xlHj-1" edge="1">
          <mxGeometry relative="1" as="geometry">
            <mxPoint x="380" y="310" as="targetPoint" />
            <Array as="points">
              <mxPoint x="260" y="310" />
            </Array>
          </mxGeometry>
        </mxCell>
        <mxCell id="Lvlu1L-vkbJUihA7xlHj-1" value="Http/RTC" style="rounded=1;whiteSpace=wrap;html=1;" parent="sNLeW46Lzk7iC-Mk6fb0-1" vertex="1">
          <mxGeometry x="210" y="410" width="100" height="50" as="geometry" />
        </mxCell>
        <mxCell id="Lvlu1L-vkbJUihA7xlHj-11" style="edgeStyle=orthogonalEdgeStyle;rounded=0;orthogonalLoop=1;jettySize=auto;html=1;entryX=0.5;entryY=1;entryDx=0;entryDy=0;startArrow=classic;startFill=1;" parent="sNLeW46Lzk7iC-Mk6fb0-1" source="Lvlu1L-vkbJUihA7xlHj-2" target="Lvlu1L-vkbJUihA7xlHj-0" edge="1">
          <mxGeometry relative="1" as="geometry" />
        </mxCell>
        <mxCell id="Lvlu1L-vkbJUihA7xlHj-2" value="Location" style="rounded=1;whiteSpace=wrap;html=1;" parent="sNLeW46Lzk7iC-Mk6fb0-1" vertex="1">
          <mxGeometry x="390" y="410" width="100" height="50" as="geometry" />
        </mxCell>
        <mxCell id="Lvlu1L-vkbJUihA7xlHj-12" style="edgeStyle=orthogonalEdgeStyle;rounded=0;orthogonalLoop=1;jettySize=auto;html=1;startArrow=classic;startFill=1;" parent="sNLeW46Lzk7iC-Mk6fb0-1" source="Lvlu1L-vkbJUihA7xlHj-3" edge="1">
          <mxGeometry relative="1" as="geometry">
            <mxPoint x="500" y="310" as="targetPoint" />
            <Array as="points">
              <mxPoint x="620" y="310" />
            </Array>
          </mxGeometry>
        </mxCell>
        <mxCell id="Lvlu1L-vkbJUihA7xlHj-3" value="Timer" style="rounded=1;whiteSpace=wrap;html=1;" parent="sNLeW46Lzk7iC-Mk6fb0-1" vertex="1">
          <mxGeometry x="570" y="410" width="100" height="50" as="geometry" />
        </mxCell>
        <mxCell id="Lvlu1L-vkbJUihA7xlHj-7" style="edgeStyle=orthogonalEdgeStyle;rounded=0;orthogonalLoop=1;jettySize=auto;html=1;entryX=0;entryY=0.5;entryDx=0;entryDy=0;startArrow=classic;startFill=1;" parent="sNLeW46Lzk7iC-Mk6fb0-1" source="Lvlu1L-vkbJUihA7xlHj-4" target="Lvlu1L-vkbJUihA7xlHj-0" edge="1">
          <mxGeometry relative="1" as="geometry">
            <Array as="points">
              <mxPoint x="260" y="310" />
            </Array>
          </mxGeometry>
        </mxCell>
        <mxCell id="Lvlu1L-vkbJUihA7xlHj-4" value="View" style="rounded=1;whiteSpace=wrap;html=1;" parent="sNLeW46Lzk7iC-Mk6fb0-1" vertex="1">
          <mxGeometry x="210" y="160" width="100" height="50" as="geometry" />
        </mxCell>
        <mxCell id="Lvlu1L-vkbJUihA7xlHj-8" style="edgeStyle=orthogonalEdgeStyle;rounded=0;orthogonalLoop=1;jettySize=auto;html=1;entryX=0.5;entryY=0;entryDx=0;entryDy=0;startArrow=classic;startFill=1;" parent="sNLeW46Lzk7iC-Mk6fb0-1" source="Lvlu1L-vkbJUihA7xlHj-5" target="Lvlu1L-vkbJUihA7xlHj-0" edge="1">
          <mxGeometry relative="1" as="geometry" />
        </mxCell>
        <mxCell id="Lvlu1L-vkbJUihA7xlHj-5" value="Promotion" style="rounded=1;whiteSpace=wrap;html=1;" parent="sNLeW46Lzk7iC-Mk6fb0-1" vertex="1">
          <mxGeometry x="390" y="160" width="100" height="50" as="geometry" />
        </mxCell>
        <mxCell id="Lvlu1L-vkbJUihA7xlHj-9" style="edgeStyle=orthogonalEdgeStyle;rounded=0;orthogonalLoop=1;jettySize=auto;html=1;entryX=1;entryY=0.5;entryDx=0;entryDy=0;startArrow=classic;startFill=1;" parent="sNLeW46Lzk7iC-Mk6fb0-1" source="Lvlu1L-vkbJUihA7xlHj-6" target="Lvlu1L-vkbJUihA7xlHj-0" edge="1">
          <mxGeometry relative="1" as="geometry">
            <Array as="points">
              <mxPoint x="620" y="310" />
            </Array>
          </mxGeometry>
        </mxCell>
        <mxCell id="Lvlu1L-vkbJUihA7xlHj-6" value="Duty" style="rounded=1;whiteSpace=wrap;html=1;" parent="sNLeW46Lzk7iC-Mk6fb0-1" vertex="1">
          <mxGeometry x="570" y="160" width="100" height="50" as="geometry" />
        </mxCell>
      </root>
    </mxGraphModel>
  </diagram>
</mxfile>
